<svg version="1.1" id="Layer_1" xmlns="http://www.w3.org/2000/svg" xmlns:xlink="http://www.w3.org/1999/xlink" x="0px" y="0px"
	 width="100%" viewBox="0 0 496 496" enable-background="new 0 0 496 496" xml:space="preserve">
<path fill="#000000" opacity="1.000000" stroke="none" 
	d="
M291.929718,310.805725 
	C258.189728,307.527954 213.485931,282.717743 206.776886,263.750122 
	C208.374619,262.773193 209.263641,264.216797 210.159592,264.925842 
	C225.115997,276.762177 242.866364,281.753204 261.029541,285.647736 
	C268.180756,287.181061 275.385498,288.398956 282.802948,287.186218 
	C303.254822,283.842438 316.414368,271.569733 324.902405,253.356079 
	C329.372528,243.764053 332.223969,233.744446 333.508331,223.252914 
	C335.143158,209.898834 325.753479,193.506256 313.419189,188.116867 
	C301.782288,183.032227 289.389618,181.517944 276.936035,180.359009 
	C272.597565,179.955261 268.779694,181.573776 265.421661,184.347870 
	C264.304779,185.270554 263.076874,186.479218 261.469086,185.153870 
	C259.961975,183.911499 259.887665,182.385513 260.615295,180.654007 
	C263.968903,172.673401 267.122589,164.603958 270.673157,156.712677 
	C273.010254,151.518341 277.323944,148.059631 282.309540,145.429504 
	C283.743683,144.672958 285.471436,144.333038 286.416962,142.865540 
	C286.049500,140.629974 284.604828,140.612442 283.031097,140.983215 
	C280.179840,141.654984 278.697449,140.030426 277.489594,137.829529 
	C276.528107,136.077545 276.871460,134.592499 278.411652,133.436966 
	C279.936615,132.292847 281.364471,132.975113 282.384521,134.175262 
	C284.330200,136.464478 286.308563,138.691040 288.772217,140.441315 
	C290.316284,141.538330 291.889679,142.418396 294.127106,141.121078 
	C293.581024,136.449615 290.787109,132.740311 288.385895,128.861862 
	C287.451630,127.352859 286.181793,127.908051 284.850403,128.207916 
	C281.444031,128.975113 279.977173,126.659737 278.979431,124.071083 
	C278.242981,122.160385 278.870270,120.345818 280.736267,119.368919 
	C283.001556,118.182991 284.758026,119.570976 285.829468,121.266464 
	C289.110596,126.458641 293.315643,131.047516 295.715363,136.834320 
	C296.574768,138.906723 297.225250,142.670425 300.490143,141.224960 
	C303.041870,140.095276 301.762054,136.780319 301.374512,134.401031 
	C301.223450,133.473663 300.510590,132.617920 299.979584,131.776276 
	C298.748016,129.824341 297.857513,127.808502 299.928497,125.939354 
	C301.771545,124.275955 303.739777,124.851913 305.260925,126.441139 
	C307.023865,128.282990 308.808289,130.570251 306.560150,132.985977 
	C304.487793,135.212799 303.836395,137.340897 304.794952,140.203293 
	C305.322784,141.779526 306.113007,142.848557 307.701172,143.297058 
	C332.141815,150.198990 345.181091,167.803497 352.584808,190.843811 
	C362.565338,221.903137 359.673676,251.664627 343.594696,280.007660 
	C332.364532,299.803558 314.589203,309.092316 291.929718,310.805725 
z"/>
<path fill="#000000" opacity="1.000000" stroke="none" 
	d="
M170.409668,161.521057 
	C164.107864,217.023178 187.141678,260.366699 225.864288,297.142731 
	C223.196228,298.971313 221.871887,298.000580 220.596161,297.326477 
	C194.362244,283.464233 171.312668,265.749817 153.196411,241.967529 
	C139.002289,223.334106 130.449310,202.774521 129.486938,179.056488 
	C128.626984,157.862350 132.445969,138.008240 143.921616,120.004166 
	C155.348099,102.077232 172.413208,92.894707 192.996582,90.045723 
	C199.410767,89.157921 205.921753,90.648476 211.966049,93.343849 
	C213.866318,94.191254 215.599533,95.427048 215.578857,97.691917 
	C215.559631,99.799355 213.464218,99.984253 211.986465,100.621544 
	C198.449066,106.459648 189.826538,117.425743 182.536041,129.518600 
	C176.662994,139.260330 172.518524,149.811722 170.409668,161.521057 
z"/>
<path fill="#000000" opacity="1.000000" stroke="none" 
	d="
M214.915558,218.577698 
	C214.824753,228.686035 217.898346,237.866501 219.969437,247.216156 
	C216.996841,247.847336 216.113266,245.950424 215.078201,244.586792 
	C194.264053,217.164566 189.791138,187.357758 202.365021,155.216293 
	C204.998428,148.484756 209.063446,142.525589 214.575897,137.761307 
	C218.867630,134.052063 223.825363,131.724548 229.705276,132.721313 
	C237.852722,134.102432 242.609009,141.519043 240.765717,149.851822 
	C239.582565,155.200317 236.677856,159.605164 233.116547,163.686279 
	C219.493362,179.297958 214.288483,197.762573 214.915558,218.577698 
z"/>
<path fill="#000000" opacity="1.000000" stroke="none" 
	d="
M115.811119,261.160461 
	C108.562096,252.221725 101.209320,243.764893 98.092506,232.671112 
	C96.312164,226.334320 95.193764,219.707245 101.134171,215.224869 
	C106.985565,210.809631 113.147942,213.372025 118.877457,216.670532 
	C123.094276,219.098145 125.799789,222.731079 127.988472,226.974670 
	C135.225189,241.005814 141.339142,255.669113 151.429886,268.094635 
	C158.826218,277.202301 167.130798,285.286285 176.785828,291.980255 
	C178.474762,293.151215 181.485901,294.217621 180.455460,296.627686 
	C179.190186,299.586945 176.352951,297.483673 174.276520,297.023285 
	C150.806717,291.819489 131.872437,279.154968 115.811119,261.160461 
z"/>
<path fill="#000000" opacity="1.000000" stroke="none" 
	d="
M235.433441,358.363770 
	C233.768921,358.197540 232.229874,358.721649 231.701294,356.928497 
	C237.588257,350.744751 237.420395,331.374573 231.440796,325.812561 
	C238.041260,322.987518 242.943390,324.141724 246.781311,329.406555 
	C250.364288,334.321686 253.960587,339.227081 258.032349,343.912811 
	C257.263367,337.675873 261.075714,330.511261 252.895081,325.450104 
	C257.797791,323.475464 261.770142,323.556641 267.288788,325.310150 
	C261.267334,328.587372 262.257721,333.264618 262.259003,337.640747 
	C262.260529,342.798370 262.368378,347.957214 262.282135,353.113007 
	C262.251373,354.953766 263.039307,357.360565 260.272430,358.095520 
	C257.717346,358.774261 256.319122,357.138672 254.978226,355.292358 
	C250.579971,349.236298 246.117920,343.226440 241.662537,337.212097 
	C241.199783,336.587402 240.617813,336.051025 239.394638,334.710052 
	C239.394638,341.089813 239.452362,346.505066 239.374710,351.918365 
	C239.321335,355.639771 243.994995,354.095947 244.853561,357.120636 
	C242.070129,359.227722 238.829651,357.984558 235.433441,358.363770 
z"/>
<path fill="#000000" opacity="1.000000" stroke="none" 
	d="
M200.886734,331.198822 
	C199.623947,330.097382 198.674728,329.113739 197.526825,328.504364 
	C194.833282,327.074463 192.068756,327.267456 190.632126,330.090851 
	C189.097946,333.105927 191.503952,334.631409 193.911865,335.709930 
	C195.576309,336.455444 197.327911,337.004333 199.030426,337.667206 
	C206.860352,340.715698 209.805130,345.395294 207.755722,351.512604 
	C205.731903,357.553558 198.764816,360.803162 191.664658,358.580109 
	C188.853180,357.699829 186.298981,357.291595 182.985489,358.975708 
	C182.187714,354.081421 181.557007,349.818481 183.166733,345.349121 
	C186.635757,346.169373 186.566879,349.009613 187.658737,350.869049 
	C189.647705,354.256317 192.379486,355.911774 196.268646,355.616302 
	C198.269958,355.464264 199.775604,354.465363 200.384720,352.517883 
	C201.057922,350.365631 199.798386,348.911652 198.085236,348.063080 
	C195.410660,346.738251 192.563309,345.767242 189.850510,344.513580 
	C183.451080,341.556244 181.269150,337.481140 183.012894,331.954620 
	C184.728775,326.516388 190.512985,323.248962 196.610550,324.653229 
	C199.529083,325.325378 202.339554,326.086517 205.228088,325.080353 
	C206.764954,329.620392 206.719009,332.884735 205.088898,336.799316 
	C202.405273,336.017914 202.515503,333.150574 200.886734,331.198822 
z"/>
<path fill="#000000" opacity="1.000000" stroke="none" 
	d="
M107.423355,325.742188 
	C112.410065,324.520782 116.722763,328.446198 121.545647,325.886078 
	C122.655220,330.096588 122.773430,333.834961 121.641220,337.697845 
	C118.671288,337.440186 118.608742,335.011353 117.693970,333.438141 
	C115.928322,330.401489 113.483940,328.822632 109.921539,329.148621 
	C108.359810,329.291534 106.920464,329.664856 106.396500,331.386871 
	C105.826607,333.259827 106.591118,334.802368 108.173012,335.618073 
	C110.670135,336.905701 113.313446,337.917633 115.921654,338.980560 
	C122.771317,341.771881 125.526619,346.281372 123.788422,351.935059 
	C121.995468,357.766815 115.421310,361.471802 109.062355,359.896332 
	C105.861031,359.103210 102.794441,357.963440 98.985413,359.752106 
	C98.698494,354.906586 98.103310,350.661438 99.123741,346.283417 
	C102.311623,346.820618 102.240471,349.247711 103.143196,350.863556 
	C105.129799,354.419617 107.608665,357.127991 112.131203,356.662323 
	C114.281738,356.440826 115.998375,355.439148 116.524330,353.219360 
	C117.103455,350.775238 115.425415,349.509460 113.556038,348.628326 
	C111.006470,347.426544 108.340263,346.474396 105.772636,345.308289 
	C101.612556,343.418884 98.285072,340.871887 98.691132,335.613220 
	C99.098732,330.334595 101.787804,326.996490 107.423355,325.742188 
z"/>
<path fill="#000000" opacity="1.000000" stroke="none" 
	d="
M128.774460,325.741699 
	C133.784668,325.708588 138.380615,325.708588 143.632645,325.708588 
	C135.907364,334.032379 140.098740,343.207336 139.630981,351.650085 
	C139.444260,355.020294 143.130341,356.449707 146.289078,356.310028 
	C149.499390,356.168030 152.324646,354.408234 152.501511,350.904846 
	C152.820221,344.591766 152.589417,338.251892 152.632919,331.923523 
	C152.654861,328.732422 148.600754,329.300415 147.620102,325.980560 
	C151.913391,325.578461 155.870117,324.694855 160.890869,326.128143 
	C153.611542,331.782043 156.681061,339.007538 156.444031,345.439423 
	C156.023834,356.841553 151.295837,361.130646 140.043564,359.317169 
	C133.809204,358.312408 130.825851,354.868774 130.700180,348.407928 
	C130.628891,344.743439 130.730423,341.075531 130.650772,337.411407 
	C130.574448,333.901337 131.664841,330.103302 127.179947,327.927765 
	C125.625137,327.173584 127.135818,326.097473 128.774460,325.741699 
z"/>
<path fill="#000000" opacity="1.000000" stroke="none" 
	d="
M165.974640,348.768982 
	C165.933548,344.302917 165.891266,340.305206 165.853882,336.307434 
	C165.818878,332.562988 166.544357,328.510773 161.557907,326.292786 
	C167.393478,324.279480 172.999268,324.564758 180.136475,325.447784 
	C173.007950,330.208893 175.131165,336.413452 175.418701,341.831573 
	C175.690872,346.960236 172.243698,353.424927 180.576370,357.255005 
	C173.757446,360.007568 168.046188,358.855988 162.129868,357.962830 
	C164.698654,355.334503 166.857315,352.945618 165.974640,348.768982 
z"/>
<path fill="#000000" opacity="1.000000" stroke="none" 
	d="
M212.224091,355.844055 
	C215.071442,354.684387 215.881714,352.818298 215.802505,350.159851 
	C215.653870,345.171326 215.655548,340.174713 215.742157,335.184021 
	C215.806625,331.469025 216.028198,327.790894 211.717087,325.303406 
	C217.442551,325.303406 223.168015,325.303406 230.397888,325.303406 
	C222.349823,329.799438 225.417252,336.199493 225.352509,341.526947 
	C225.287567,346.871735 222.741684,353.269287 229.628799,357.448883 
	C223.714828,358.470123 218.094757,358.765503 212.442993,357.829987 
	C211.699219,357.706848 211.820602,356.781708 212.224091,355.844055 
z"/>
</svg>